<svg width="42" height="25" viewBox="0 0 42 25" fill="none" xmlns="http://www.w3.org/2000/svg">
<path d="M2.55072 0.659999L2.38272 5.88L2.52672 9H0.846719L0.990719 6.084L0.846719 0.96L2.55072 0.659999ZM10.8158 0.696L10.6598 5.88L10.7918 8.736L9.37581 9.036L5.79981 3.252V5.88L5.96781 9H4.46781L4.61181 6.084L4.46781 0.756L5.90781 0.684L9.47181 6.552L9.35181 0.875999L10.8158 0.696ZM15.2013 9.132C14.6333 9.132 13.8133 9.088 12.7413 9L12.8853 6.084L12.7413 0.719999H15.9453C17.0253 0.719999 17.8693 1.044 18.4773 1.692C19.0853 2.34 19.3893 3.24 19.3893 4.392C19.3893 5.848 19.0133 7.004 18.2613 7.86C17.5093 8.708 16.4893 9.132 15.2013 9.132ZM15.5133 2.016C14.9853 2.016 14.6133 2.02 14.3973 2.028L14.2773 5.88L14.3613 7.824C15.0333 7.872 15.4853 7.896 15.7173 7.896C16.3493 7.896 16.8453 7.64 17.2053 7.128C17.5733 6.616 17.7573 5.872 17.7573 4.896C17.7573 3.92 17.5773 3.196 17.2173 2.724C16.8653 2.252 16.2973 2.016 15.5133 2.016ZM23.242 9.132C22.522 9.132 21.914 8.912 21.418 8.472C20.93 8.032 20.686 7.488 20.686 6.84L20.566 0.96L22.294 0.659999L22.102 5.916C22.102 6.476 22.23 6.912 22.486 7.224C22.75 7.536 23.154 7.692 23.698 7.692C24.242 7.692 24.634 7.54 24.874 7.236C25.114 6.932 25.234 6.408 25.234 5.664L25.09 0.96L26.77 0.659999L26.638 5.94C26.638 6.884 26.322 7.652 25.69 8.244C25.058 8.836 24.242 9.132 23.242 9.132ZM31.0824 9.132C30.1944 9.132 29.4464 8.76 28.8384 8.016C28.2304 7.272 27.9264 6.36 27.9264 5.28C27.9264 3.96 28.2904 2.848 29.0184 1.944C29.7544 1.04 30.6544 0.588 31.7184 0.588C32.1344 0.588 32.5184 0.631999 32.8704 0.719999C33.2304 0.8 33.4864 0.884 33.6384 0.972L33.8544 1.104L33.0384 2.772C32.8544 2.612 32.5944 2.464 32.2584 2.328C31.9224 2.184 31.6184 2.112 31.3464 2.112C30.7944 2.112 30.3504 2.34 30.0144 2.796C29.6864 3.252 29.5224 3.904 29.5224 4.752C29.5224 5.592 29.6944 6.284 30.0384 6.828C30.3824 7.364 30.8504 7.632 31.4424 7.632C31.8264 7.632 32.1744 7.512 32.4864 7.272C32.7984 7.032 33.0184 6.712 33.1464 6.312L34.1424 6.888C33.8784 7.592 33.4744 8.144 32.9304 8.544C32.3864 8.936 31.7704 9.132 31.0824 9.132ZM36.8398 0.659999L36.7078 4.572L39.7678 0.684L40.9918 1.5L38.2318 4.704L41.1598 8.172L39.6238 9.132L36.6958 4.992L36.6718 5.88L36.8158 9H35.1358L35.2798 6.084L35.1358 0.96L36.8398 0.659999ZM8.99078 20.256H9.11078L10.8628 15.696L12.5188 15.744L12.5668 20.904L12.7948 24H11.1748L11.2348 20.88L11.1028 17.724L9.66278 21.696L8.18678 21.768L6.84278 17.724L6.73478 20.88L6.81878 24H5.33078L5.49878 21.084L5.57078 15.936L7.47878 15.636L8.99078 20.256ZM17.8356 15.6C18.7796 15.6 19.5556 15.96 20.1636 16.68C20.7796 17.4 21.0876 18.316 21.0876 19.428C21.0876 20.836 20.7236 21.972 19.9956 22.836C19.2676 23.7 18.3116 24.132 17.1276 24.132C16.2076 24.132 15.4356 23.764 14.8116 23.028C14.1876 22.284 13.8756 21.368 13.8756 20.28C13.8756 18.92 14.2476 17.8 14.9916 16.92C15.7356 16.04 16.6836 15.6 17.8356 15.6ZM19.4556 20.1C19.4556 18.076 18.7916 17.064 17.4636 17.064C16.8556 17.064 16.3756 17.292 16.0236 17.748C15.6796 18.196 15.5076 18.872 15.5076 19.776C15.5076 20.672 15.6916 21.412 16.0596 21.996C16.4356 22.572 16.9276 22.86 17.5356 22.86C18.1516 22.86 18.6236 22.616 18.9516 22.128C19.2876 21.632 19.4556 20.956 19.4556 20.1ZM25.8892 20.256H26.0092L27.7612 15.696L29.4172 15.744L29.4652 20.904L29.6932 24H28.0732L28.1332 20.88L28.0012 17.724L26.5612 21.696L25.0852 21.768L23.7412 17.724L23.6332 20.88L23.7172 24H22.2292L22.3972 21.084L22.4692 15.936L24.3772 15.636L25.8892 20.256ZM31.5061 21.612C32.1861 22.292 32.8661 22.632 33.5461 22.632C33.8981 22.632 34.1781 22.552 34.3861 22.392C34.6021 22.224 34.7101 22.012 34.7101 21.756C34.7101 21.492 34.5821 21.272 34.3261 21.096C34.0701 20.912 33.7581 20.752 33.3901 20.616C33.0301 20.48 32.6701 20.328 32.3101 20.16C31.9501 19.984 31.6421 19.736 31.3861 19.416C31.1301 19.096 31.0021 18.708 31.0021 18.252C31.0021 17.532 31.3021 16.912 31.9021 16.392C32.5021 15.864 33.2141 15.6 34.0381 15.6C34.4141 15.6 34.7781 15.64 35.1301 15.72C35.4821 15.8 35.8221 15.916 36.1501 16.068L35.3341 17.82C35.1101 17.644 34.8021 17.484 34.4101 17.34C34.0261 17.188 33.6861 17.112 33.3901 17.112C33.1021 17.112 32.8661 17.184 32.6821 17.328C32.5061 17.464 32.4181 17.648 32.4181 17.88C32.4181 18.112 32.5461 18.32 32.8021 18.504C33.0581 18.68 33.3661 18.836 33.7261 18.972C34.0941 19.108 34.4581 19.26 34.8181 19.428C35.1861 19.588 35.4981 19.828 35.7541 20.148C36.0101 20.468 36.1381 20.856 36.1381 21.312C36.1381 22.064 35.8381 22.724 35.2381 23.292C34.6381 23.852 33.9381 24.132 33.1381 24.132C32.5381 24.132 32.0061 23.988 31.5421 23.7C31.1341 23.452 30.8461 23.232 30.6781 23.04L30.5701 22.908L31.5061 21.612Z" fill="black"/>
</svg>
