<svg width="285" height="332" viewBox="0 0 285 332" fill="none" xmlns="http://www.w3.org/2000/svg">
<rect width="285" height="332" fill="#ADDCFF"/>
<path d="M225.904 26.4294L212.468 42.4422L209.262 35.3727L222.532 19.5576L225.904 26.4294Z" fill="#FFC0C0"/>
<path d="M26.1395 16.9585L36.2736 35.2409L28.5248 35.7003L18.5158 17.6437L26.1395 16.9585Z" fill="#FFC0C0"/>
<path d="M112.642 29.9677L95.9482 42.5476L94.4148 34.9381L110.903 22.5136L112.642 29.9677Z" fill="#FFF582"/>
<path d="M259.586 47.5235L239 43.8937L243.519 37.5826L263.851 41.1676L259.586 47.5235Z" fill="#FFF582"/>
<path d="M274.103 41.5139L256 31.0623L262.405 26.6775L280.285 37.0001L274.103 41.5139Z" fill="#82F0FF"/>
<path d="M34.1028 70.5139L16.0001 60.0623L22.4054 55.6775L40.2847 66.0001L34.1028 70.5139Z" fill="#82F0FF"/>
</svg>
